<svg id="svg" version="1.1" xmlns="http://www.w3.org/2000/svg" xmlns:xlink="http://www.w3.org/1999/xlink" width="75px" height="45px" viewBox="100, 60, 400, 300"><g id="svgg"><path id="path0" d="M211.500 55.332 C 187.907 57.161,166.767 64.374,147.667 77.112 C 144.581 79.169,139.437 82.888,138.500 83.738 C 138.317 83.904,139.442 83.564,141.000 82.982 C 145.097 81.452,144.865 81.467,145.295 82.700 C 145.773 84.070,146.210 83.818,138.667 86.521 L 132.500 88.732 128.428 92.766 C 126.189 94.985,124.400 96.844,124.453 96.897 C 124.506 96.951,129.696 95.116,135.986 92.819 C 142.276 90.523,147.455 88.687,147.495 88.739 C 148.195 89.647,148.237 91.053,147.571 91.300 C 147.165 91.450,140.908 93.720,133.667 96.343 C 126.425 98.967,120.275 101.368,120.000 101.680 C 118.369 103.527,114.945 108.056,115.079 108.190 C 115.166 108.277,123.021 105.502,132.534 102.023 C 142.047 98.544,149.950 95.816,150.095 95.962 C 150.241 96.107,150.391 96.657,150.430 97.183 L 150.500 98.140 131.167 105.203 L 111.833 112.266 109.725 115.497 C 108.565 117.273,107.672 118.783,107.740 118.851 C 107.808 118.919,117.907 115.320,130.182 110.852 L 152.500 102.730 152.902 103.615 C 153.123 104.102,153.309 104.650,153.315 104.833 C 153.322 105.017,142.566 109.079,129.414 113.860 L 105.500 122.553 103.889 125.638 C 103.003 127.335,102.328 128.772,102.389 128.833 C 102.503 128.946,103.937 128.429,136.116 116.668 L 155.066 109.743 155.552 110.907 C 155.820 111.548,155.993 112.114,155.936 112.166 C 155.859 112.237,106.033 130.376,101.287 132.060 C 100.490 132.343,97.561 138.093,98.035 138.446 C 98.107 138.500,111.217 133.768,127.167 127.931 C 160.463 115.746,157.855 116.582,158.164 117.989 C 158.292 118.571,158.327 119.118,158.241 119.204 C 158.155 119.289,144.304 124.385,127.461 130.528 C 110.618 136.670,96.743 141.802,96.629 141.931 C 96.339 142.258,94.647 147.425,94.785 147.563 C 94.846 147.624,109.567 142.340,127.498 135.820 C 146.598 128.875,160.222 124.088,160.396 124.263 C 160.559 124.426,160.725 124.964,160.763 125.458 C 160.833 126.356,160.813 126.364,127.338 138.535 C 108.915 145.233,93.790 150.765,93.728 150.828 C 93.520 151.036,92.298 156.063,92.400 156.293 C 92.455 156.417,108.025 150.852,127.000 143.928 C 167.531 129.137,162.823 130.680,163.293 132.028 C 163.500 132.622,163.607 133.171,163.530 133.248 C 163.453 133.325,147.217 139.281,127.451 146.485 L 91.512 159.582 90.970 162.291 C 90.673 163.781,90.552 165.000,90.702 165.000 C 90.852 165.000,107.482 159.006,127.658 151.680 C 147.834 144.355,164.588 138.317,164.889 138.264 C 165.879 138.088,166.527 140.279,165.587 140.623 C 165.173 140.775,148.008 147.013,127.444 154.485 C 95.287 166.170,90.030 168.171,89.881 168.786 C 89.786 169.179,89.604 170.440,89.477 171.589 L 89.246 173.677 91.040 173.001 C 111.416 165.314,167.867 145.113,168.077 145.433 C 168.412 145.945,168.785 147.332,168.623 147.469 C 168.556 147.526,150.623 154.064,128.774 161.997 L 89.049 176.420 88.817 178.892 C 88.690 180.251,88.652 181.430,88.734 181.511 C 88.865 181.643,125.935 168.188,275.833 113.603 C 298.017 105.525,316.595 98.765,317.118 98.580 L 318.068 98.244 313.618 93.764 C 287.014 66.987,248.436 52.468,211.500 55.332 M302.833 221.318 C 238.492 244.753,172.532 268.776,149.214 277.266 L 130.260 284.167 132.380 286.108 C 142.934 295.771,157.647 305.010,170.934 310.315 L 175.367 312.086 217.267 296.834 C 240.312 288.445,269.171 277.935,281.398 273.477 C 293.625 269.019,303.885 265.325,304.199 265.269 C 304.929 265.138,305.929 267.258,305.255 267.505 C 292.454 272.185,232.022 294.172,209.917 302.192 C 193.280 308.228,179.668 313.242,179.668 313.333 C 179.668 313.425,181.362 314.004,183.433 314.620 L 187.197 315.739 220.849 303.496 C 239.357 296.762,265.600 287.221,279.167 282.294 C 292.733 277.367,304.602 273.047,305.542 272.695 L 307.251 272.054 307.626 272.876 C 307.831 273.328,308.000 273.878,307.999 274.099 C 307.999 274.327,296.752 278.584,281.916 283.971 C 208.729 310.545,191.420 316.910,192.167 316.975 C 192.350 316.991,194.476 317.356,196.891 317.788 L 201.282 318.571 255.558 298.813 L 309.833 279.054 310.235 279.944 C 310.456 280.433,310.642 280.983,310.649 281.167 C 310.655 281.350,287.341 289.975,258.839 300.333 C 200.644 321.483,205.450 319.369,214.500 319.834 L 219.167 320.074 253.500 307.564 C 272.383 300.683,291.915 293.563,296.903 291.742 L 305.973 288.430 308.952 285.710 C 328.627 267.748,342.557 244.295,348.676 218.825 C 349.771 214.271,351.434 204.894,351.273 204.184 C 351.194 203.834,338.724 208.245,302.833 221.318 M263.540 306.597 C 244.129 313.678,228.418 319.528,228.626 319.598 C 229.484 319.883,240.227 318.543,245.598 317.480 C 253.089 315.998,276.538 307.661,282.782 304.260 C 289.003 300.871,300.272 293.587,299.127 293.694 C 298.965 293.709,282.951 299.515,263.540 306.597 " stroke="none" fill="#fc7c0c" fill-rule="evenodd"></path><path id="path1" d="M189.500 50.210 C 165.870 52.588,148.436 57.537,130.496 66.960 C 48.328 110.117,24.415 216.356,80.199 290.414 C 116.263 338.292,177.614 360.043,235.979 345.642 C 293.846 331.365,337.520 284.594,347.848 225.842 C 348.761 220.646,348.869 218.986,348.130 221.500 C 340.629 247.028,330.664 264.105,313.022 281.667 L 306.157 288.500 299.495 290.890 C 295.831 292.205,276.333 299.305,256.167 306.669 L 219.500 320.057 214.333 319.851 C 211.492 319.737,208.659 319.534,208.039 319.400 C 207.050 319.185,213.185 316.874,257.705 300.686 C 318.007 278.760,310.720 281.585,310.274 280.305 C 309.805 278.960,315.967 276.868,254.870 299.114 L 201.241 318.641 196.716 317.806 C 192.048 316.943,191.580 316.804,192.369 316.509 C 196.103 315.114,254.282 293.954,277.421 285.576 C 310.766 273.502,309.018 274.264,307.322 272.529 C 307.032 272.232,296.174 276.128,220.059 303.841 L 187.285 315.774 184.220 314.908 C 178.262 313.225,175.240 314.714,210.835 301.797 C 242.702 290.232,292.593 272.069,301.055 268.952 L 305.609 267.274 305.155 266.220 C 304.618 264.976,305.188 264.880,298.333 267.378 C 219.138 296.246,176.362 311.793,175.817 311.908 C 173.275 312.443,154.988 303.173,145.334 296.456 C 139.772 292.586,130.029 284.527,130.428 284.127 C 130.553 284.003,176.859 267.120,324.833 213.248 L 349.833 204.146 349.797 196.157 C 349.649 163.106,335.016 125.003,313.616 101.938 L 312.167 100.376 275.667 113.699 C 209.826 137.731,89.031 181.667,88.798 181.667 C 88.547 181.667,88.853 176.702,89.121 176.434 C 89.214 176.342,107.037 169.821,128.728 161.944 C 172.084 146.200,168.876 147.487,168.270 146.080 L 167.833 145.067 131.833 158.191 C 112.033 165.408,94.351 171.846,92.540 172.497 L 89.246 173.680 89.484 171.260 C 89.615 169.930,89.837 168.636,89.977 168.386 C 90.117 168.136,107.242 161.746,128.032 154.187 L 165.833 140.443 165.763 139.501 C 165.725 138.983,165.575 138.455,165.430 138.326 C 165.285 138.197,148.367 144.203,127.833 151.671 C 107.300 159.140,90.461 165.217,90.412 165.176 C 90.242 165.033,91.329 159.871,91.579 159.633 C 91.768 159.453,139.731 141.889,161.721 133.947 L 163.608 133.265 163.255 132.216 C 163.060 131.639,162.871 131.127,162.835 131.079 C 162.799 131.031,146.885 136.768,127.471 143.829 C 108.057 150.890,92.145 156.667,92.111 156.667 C 91.978 156.667,93.577 150.979,93.762 150.794 C 93.870 150.685,108.994 145.137,127.370 138.464 C 145.746 131.790,160.831 126.280,160.892 126.219 C 161.162 125.949,160.215 123.974,159.877 124.102 C 152.047 127.070,94.894 147.672,94.787 147.565 C 94.329 147.107,96.480 141.942,97.300 141.533 C 97.777 141.295,111.713 136.174,128.270 130.152 L 158.373 119.202 158.163 118.351 C 158.047 117.883,157.837 117.381,157.694 117.235 C 157.552 117.089,144.100 121.830,127.801 127.771 C 111.502 133.712,98.118 138.448,98.059 138.297 C 98.000 138.145,98.525 136.725,99.226 135.141 L 100.500 132.261 127.500 122.473 C 159.613 110.833,156.050 112.287,155.571 111.017 C 155.064 109.673,157.810 108.810,128.430 119.542 C 114.061 124.790,102.242 129.020,102.164 128.942 C 102.087 128.864,102.805 127.386,103.762 125.656 L 105.500 122.511 129.000 113.950 C 155.693 104.226,153.531 105.131,152.976 103.914 C 152.432 102.720,154.908 101.956,129.965 111.005 C 117.829 115.408,107.830 118.941,107.746 118.857 C 107.662 118.773,108.560 117.233,109.742 115.435 L 111.891 112.167 131.029 105.205 C 152.230 97.493,150.976 98.046,150.312 96.710 L 149.833 95.744 132.333 102.160 C 122.708 105.689,114.778 108.529,114.710 108.471 C 114.594 108.370,118.063 103.860,119.728 101.947 C 120.337 101.248,123.355 100.024,134.000 96.157 C 150.012 90.342,148.387 91.090,147.836 89.784 L 147.394 88.735 135.989 92.881 C 129.716 95.162,124.522 96.967,124.448 96.892 C 124.374 96.818,126.129 94.953,128.348 92.747 L 132.383 88.736 139.025 86.324 C 142.678 84.998,145.667 83.879,145.667 83.839 C 145.667 83.637,144.922 81.667,144.846 81.667 C 144.797 81.667,143.357 82.187,141.646 82.823 C 137.601 84.327,137.615 84.283,142.320 80.798 C 170.736 59.744,206.723 51.014,241.615 56.709 C 246.912 57.574,246.987 57.380,241.924 55.899 C 226.478 51.383,203.079 48.844,189.500 50.210 M313.167 93.333 C 315.361 95.533,317.231 97.333,317.323 97.333 C 317.415 97.333,315.694 95.533,313.500 93.333 C 311.306 91.133,309.435 89.333,309.344 89.333 C 309.252 89.333,310.972 91.133,313.167 93.333 M260.988 145.947 C 263.532 147.312,264.037 150.145,263.815 161.833 C 263.728 166.417,263.595 170.467,263.520 170.833 C 263.446 171.200,263.373 171.591,263.359 171.703 C 263.313 172.065,258.314 172.782,258.032 172.467 C 257.885 172.302,256.221 166.842,254.335 160.333 C 252.448 153.825,250.835 148.311,250.749 148.081 C 250.172 146.529,258.742 144.743,260.988 145.947 M300.137 159.989 C 304.807 161.764,306.101 167.954,303.205 174.675 C 303.047 175.042,303.584 175.576,305.141 176.599 C 318.568 185.427,307.471 203.292,289.000 202.583 C 281.978 202.313,280.424 200.395,282.488 194.545 C 285.034 187.331,288.014 187.086,294.962 193.519 C 296.807 195.227,296.995 195.321,297.810 194.950 C 300.787 193.593,298.785 191.302,289.991 186.000 C 280.467 180.258,277.747 176.595,279.021 171.229 C 280.756 163.920,293.139 157.328,300.137 159.989 M294.667 164.708 C 290.950 166.190,291.727 169.150,296.484 171.635 C 298.277 172.571,298.622 172.344,299.354 169.749 C 300.486 165.735,298.215 163.293,294.667 164.708 M246.802 178.032 C 248.537 178.513,251.194 181.232,252.637 184.000 C 253.258 185.192,253.796 186.206,253.832 186.254 C 253.979 186.451,257.305 184.813,259.257 183.582 C 261.664 182.065,261.801 182.106,263.016 184.700 L 263.822 186.421 262.328 187.736 C 261.506 188.459,259.722 189.843,258.363 190.812 L 255.892 192.573 255.820 198.203 C 255.674 209.654,252.060 216.800,244.537 220.518 C 235.716 224.877,227.871 222.249,223.667 213.528 C 216.897 199.485,222.624 184.160,235.833 180.975 C 236.750 180.754,238.424 180.063,239.554 179.441 C 241.348 178.452,243.328 177.821,245.000 177.705 C 245.275 177.686,246.086 177.833,246.802 178.032 M156.589 187.849 C 163.143 190.588,161.643 200.345,154.270 202.935 C 142.859 206.943,138.644 192.498,149.971 188.203 C 152.511 187.240,154.833 187.115,156.589 187.849 M236.634 187.872 C 235.318 189.459,236.127 199.254,238.000 204.389 C 240.733 211.886,244.785 213.515,248.019 208.417 C 250.426 204.623,251.740 194.688,249.726 195.508 C 244.656 197.574,239.706 194.722,238.318 188.935 C 237.919 187.274,237.402 186.947,236.634 187.872 M208.333 193.343 C 211.958 195.195,213.086 198.191,214.340 209.297 C 215.697 221.303,216.028 221.976,219.455 219.698 L 221.410 218.398 222.438 219.616 C 223.003 220.285,223.682 221.093,223.945 221.410 C 225.153 222.863,216.376 230.908,211.606 232.720 C 204.200 235.534,201.477 231.898,199.503 216.557 C 198.150 206.039,197.727 204.944,195.482 206.153 C 194.115 206.889,192.667 208.682,192.667 209.638 C 192.667 212.842,195.510 230.032,196.640 233.664 L 197.257 235.646 196.212 236.425 C 193.629 238.352,183.445 242.909,182.517 242.553 C 181.641 242.217,180.176 234.892,178.339 221.667 C 177.791 217.725,177.177 213.914,176.975 213.198 C 176.576 211.786,173.423 208.333,172.533 208.333 C 171.380 208.333,171.173 206.932,172.205 206.101 C 174.090 204.583,180.026 201.747,185.681 199.661 L 188.203 198.731 189.510 200.535 L 190.817 202.338 192.146 200.752 C 198.136 193.606,203.787 191.019,208.333 193.343 M162.931 209.139 C 164.901 211.383,165.978 215.460,166.815 223.833 C 168.249 238.197,169.024 239.826,172.864 236.539 L 174.210 235.387 175.188 236.594 C 177.149 239.014,177.113 238.906,176.379 240.090 C 176.012 240.682,174.539 242.329,173.106 243.750 C 163.578 253.199,156.020 252.779,153.576 242.667 C 153.063 240.543,152.860 239.013,151.823 229.417 C 151.056 222.324,149.891 219.762,146.472 217.649 C 143.574 215.858,146.463 213.798,158.167 209.309 C 162.218 207.756,161.732 207.773,162.931 209.139 M134.296 219.023 C 138.999 220.032,140.601 223.491,142.005 235.667 C 143.409 247.846,143.698 248.427,147.134 245.966 C 148.184 245.214,149.078 244.652,149.121 244.716 C 149.164 244.781,149.841 245.619,150.627 246.579 L 152.055 248.325 151.345 249.246 C 146.866 255.057,140.037 259.664,135.826 259.714 C 130.440 259.778,128.761 256.381,126.992 241.833 C 125.743 231.557,124.439 229.847,121.145 234.165 L 120.224 235.373 120.967 241.437 C 121.850 248.645,123.127 255.842,124.161 259.432 L 124.909 262.031 123.491 263.006 C 120.297 265.204,110.802 269.329,110.033 268.854 C 109.261 268.377,107.805 261.180,106.487 251.333 C 105.294 242.419,104.725 239.311,104.107 238.333 C 103.198 236.895,101.879 235.629,100.608 234.975 C 99.123 234.211,98.676 233.153,99.553 232.481 C 100.739 231.572,108.870 227.648,112.222 226.367 L 115.611 225.072 116.411 225.953 C 116.852 226.437,117.468 227.247,117.782 227.753 L 118.352 228.672 121.366 225.520 C 126.568 220.078,130.352 218.177,134.296 219.023 M297.912 294.825 C 281.563 307.309,243.298 321.054,228.933 319.602 C 228.083 319.517,297.882 293.743,299.131 293.681 C 299.295 293.673,298.747 294.188,297.912 294.825 " stroke="none" fill="#f4f4f4" fill-rule="evenodd"></path><path id="path2" d="M255.500 145.802 C 253.024 146.413,250.568 147.592,250.749 148.081 C 250.835 148.311,252.448 153.825,254.335 160.333 C 256.221 166.842,257.885 172.302,258.032 172.467 C 258.314 172.782,263.313 172.065,263.359 171.703 C 263.373 171.591,263.446 171.200,263.520 170.833 C 263.834 169.298,263.948 153.314,263.660 151.200 C 262.960 146.053,260.656 144.528,255.500 145.802 M293.500 159.811 C 283.819 162.026,277.670 168.426,279.012 174.890 C 279.867 179.010,282.034 181.203,289.991 186.000 C 298.785 191.302,300.787 193.593,297.810 194.950 C 296.995 195.321,296.807 195.227,294.962 193.519 C 288.014 187.086,285.034 187.331,282.488 194.545 C 280.424 200.395,281.978 202.313,289.000 202.583 C 307.471 203.292,318.568 185.427,305.141 176.599 C 303.584 175.576,303.047 175.042,303.205 174.675 C 307.443 164.837,302.775 157.688,293.500 159.811 M298.651 164.920 C 299.972 165.990,299.878 169.914,298.486 171.801 C 297.531 173.096,292.333 169.489,292.333 167.532 C 292.333 165.098,296.661 163.309,298.651 164.920 M243.054 178.024 C 242.259 178.181,240.684 178.818,239.554 179.441 C 238.424 180.063,236.750 180.754,235.833 180.975 C 222.624 184.160,216.897 199.485,223.667 213.528 C 227.871 222.249,235.716 224.877,244.537 220.518 C 252.060 216.800,255.674 209.654,255.820 198.203 L 255.892 192.573 258.363 190.812 C 259.722 189.843,261.506 188.459,262.328 187.736 L 263.822 186.421 263.016 184.700 C 261.801 182.106,261.664 182.065,259.257 183.582 C 257.305 184.813,253.979 186.451,253.832 186.254 C 253.796 186.206,253.258 185.192,252.637 184.000 C 251.194 181.232,248.537 178.513,246.802 178.032 C 245.338 177.625,245.084 177.625,243.054 178.024 M149.971 188.203 C 138.644 192.498,142.859 206.943,154.270 202.935 C 159.442 201.118,162.046 195.904,160.064 191.333 C 158.434 187.574,154.691 186.413,149.971 188.203 M238.318 188.935 C 239.706 194.722,244.656 197.574,249.726 195.508 C 251.740 194.688,250.426 204.623,248.019 208.417 C 242.976 216.365,235.486 205.873,236.057 191.662 C 236.235 187.227,237.533 185.662,238.318 188.935 M203.109 192.674 C 199.883 193.329,195.923 196.247,192.146 200.752 L 190.817 202.338 189.510 200.535 L 188.203 198.731 185.681 199.661 C 180.026 201.747,174.090 204.583,172.205 206.101 C 171.173 206.932,171.380 208.333,172.533 208.333 C 173.423 208.333,176.576 211.786,176.975 213.198 C 177.177 213.914,177.791 217.725,178.339 221.667 C 180.176 234.892,181.641 242.217,182.517 242.553 C 183.445 242.909,193.629 238.352,196.212 236.425 L 197.257 235.646 196.640 233.664 C 195.510 230.032,192.667 212.842,192.667 209.638 C 192.667 208.682,194.115 206.889,195.482 206.153 C 197.727 204.944,198.150 206.039,199.503 216.557 C 201.477 231.898,204.200 235.534,211.606 232.720 C 216.376 230.908,225.153 222.863,223.945 221.410 C 223.682 221.093,223.003 220.285,222.438 219.616 L 221.410 218.398 219.455 219.698 C 216.028 221.976,215.697 221.303,214.340 209.297 C 212.764 195.343,210.014 191.274,203.109 192.674 M158.167 209.309 C 146.463 213.798,143.574 215.858,146.472 217.649 C 149.891 219.762,151.056 222.324,151.823 229.417 C 152.860 239.013,153.063 240.543,153.576 242.667 C 156.020 252.779,163.578 253.199,173.106 243.750 C 174.539 242.329,176.012 240.682,176.379 240.090 C 177.113 238.906,177.149 239.014,175.188 236.594 L 174.210 235.387 172.864 236.539 C 169.024 239.826,168.249 238.197,166.815 223.833 C 165.978 215.460,164.901 211.383,162.931 209.139 C 161.732 207.773,162.218 207.756,158.167 209.309 M129.968 219.299 C 127.244 220.171,124.768 221.961,121.366 225.520 L 118.352 228.672 117.782 227.753 C 117.468 227.247,116.852 226.437,116.411 225.953 L 115.611 225.072 112.222 226.367 C 108.870 227.648,100.739 231.572,99.553 232.481 C 98.676 233.153,99.123 234.211,100.608 234.975 C 101.879 235.629,103.198 236.895,104.107 238.333 C 104.725 239.311,105.294 242.419,106.487 251.333 C 107.805 261.180,109.261 268.377,110.033 268.854 C 110.802 269.329,120.297 265.204,123.491 263.006 L 124.909 262.031 124.161 259.432 C 123.127 255.842,121.850 248.645,120.967 241.437 L 120.224 235.373 121.145 234.165 C 124.439 229.847,125.743 231.557,126.992 241.833 C 128.761 256.381,130.440 259.778,135.826 259.714 C 140.037 259.664,146.866 255.057,151.345 249.246 L 152.055 248.325 150.627 246.579 C 149.841 245.619,149.164 244.781,149.121 244.716 C 149.078 244.652,148.184 245.214,147.134 245.966 C 143.698 248.427,143.409 247.846,142.005 235.667 C 140.844 225.602,140.044 222.976,137.440 220.683 C 135.214 218.724,133.030 218.320,129.968 219.299 " stroke="none" fill="#a4cccc" fill-rule="evenodd"></path></g></svg>